<svg width="430" xmlns="http://www.w3.org/2000/svg" height="414" id="JapDev" viewBox="0 0 430 414" xmlns:xlink="http://www.w3.org/1999/xlink" fill="none" version="1.1"><g id="shape-b8b56166-b510-80b2-8006-ff821b8b908b" rx="0" ry="0"><g id="shape-b8b56166-b510-80b2-8006-ff807322cad6"><defs><linearGradient id="fill-color-gradient-render-2-0" x1="0" y1="0.5000000000000003" x2="1" y2="0.49999999999999967" gradientTransform=""><stop offset="0" stop-color="#00bc7d" stop-opacity="1"/><stop offset="1" stop-color="#009689" stop-opacity="1"/></linearGradient><pattern patternUnits="userSpaceOnUse" x="0" y="0" width="430" height="414" id="fill-0-render-2"><g><rect width="430" height="414" style="fill: url(&quot;#fill-color-gradient-render-2-0&quot;);"/></g></pattern></defs><g class="fills" id="fills-b8b56166-b510-80b2-8006-ff807322cad6"><rect rx="80" ry="80" x="0" y="0" transform="matrix(1.000000, 0.000000, 0.000000, 1.000000, 0.000000, 0.000000)" width="430" height="414" fill="url(#fill-0-render-2)"/></g></g><g id="shape-b8b56166-b510-80b2-8006-ff819528fffb" class="w-6 h-6 text-white" rx="0" ry="0" style="fill: rgb(0, 0, 0);"><g id="shape-b8b56166-b510-80b2-8006-ff819529e7bc"><g class="fills" id="fills-b8b56166-b510-80b2-8006-ff819529e7bc"><path d="M189.30001831054688,310L240.69998168945312,104M292.1000061035156,155.5L343.5,207L292.1000061035156,258.5M137.89999389648438,258.5L86.5,207L137.89999389648438,155.5" fill="none" stroke-linecap="round" stroke-linejoin="round" style="fill: none;"/></g><g fill="none" stroke-linecap="round" stroke-linejoin="round" id="strokes-c53c261c-be8f-8095-8006-ff83242f5bee-b8b56166-b510-80b2-8006-ff819529e7bc" class="strokes"><g class="stroke-shape"><path d="M189.30001831054688,310L240.69998168945312,104M292.1000061035156,155.5L343.5,207L292.1000061035156,258.5M137.89999389648438,258.5L86.5,207L137.89999389648438,155.5" style="fill: none; stroke-width: 30; stroke: rgb(250, 244, 244); stroke-opacity: 1;"/></g></g></g></g></g></svg>
